<?xml version="1.0" encoding="utf-8"?>
<!-- Generator: Adobe Illustrator 12.0.0, SVG Export Plug-In . SVG Version: 6.00 Build 51448)  -->
<!DOCTYPE svg PUBLIC "-//W3C//DTD SVG 1.1//EN" "http://www.w3.org/Graphics/SVG/1.1/DTD/svg11.dtd" [
	<!ENTITY ns_svg "http://www.w3.org/2000/svg">
	<!ENTITY ns_xlink "http://www.w3.org/1999/xlink">
]>
<svg  version="1.1" id="Layer_1" xmlns="&ns_svg;" xmlns:xlink="&ns_xlink;" width="137.559" height="17.305"
	 viewBox="0 0 137.559 17.305" overflow="visible" enable-background="new 0 0 137.559 17.305" xml:space="preserve">
<g>
	<path fill="#FFFFFF" d="M103.273,4.621h1.799v1.442c0.504-0.525,1.043-0.917,1.617-1.174c0.572-0.257,1.176-0.387,1.805-0.387
		c1.461,0,2.508,0.402,3.135,1.209c0.625,0.807,0.941,2.229,0.941,4.269v4.98h-1.799V9.862c0-1.451-0.166-2.443-0.498-2.977
		c-0.33-0.533-0.9-0.799-1.705-0.799c-0.635,0-1.197,0.131-1.693,0.396c-0.502,0.261-0.906,0.645-1.221,1.146
		c-0.215,0.332-0.365,0.716-0.453,1.15c-0.086,0.438-0.129,1.13-0.129,2.079v0.304v3.799h-1.799V4.621L103.273,4.621z"/>
	<path fill="#FFFFFF" d="M123.516,8.514c-0.084-0.791-0.355-1.399-0.805-1.826c-0.453-0.431-1.047-0.645-1.791-0.645
		c-0.719,0-1.32,0.218-1.807,0.648c-0.484,0.435-0.809,1.039-0.965,1.822H123.516L123.516,8.514z M122.805,12.704h2.166
		c-0.125,0.755-0.525,1.348-1.197,1.774c-0.67,0.431-1.535,0.645-2.594,0.645c-1.576,0-2.814-0.471-3.707-1.411
		c-0.893-0.944-1.338-2.261-1.338-3.948c0-1.645,0.441-2.941,1.326-3.886s2.086-1.419,3.602-1.419c1.414,0,2.502,0.482,3.27,1.446
		c0.764,0.969,1.148,2.349,1.148,4.146v0.071h-7.332v0.114c0,1.013,0.266,1.803,0.805,2.372c0.537,0.573,1.271,0.857,2.205,0.857
		c0.449,0,0.814-0.063,1.088-0.189C122.525,13.15,122.711,12.957,122.805,12.704L122.805,12.704z"/>
	<path fill="#FFFFFF" d="M131.912,10.976v-4.62h-2.18V4.688h2.32V2.083l1.822-0.498v3.103h3.684v1.668h-3.824V11
		c0,0.866,0.125,1.479,0.381,1.838c0.25,0.36,0.674,0.538,1.264,0.538c0.291,0,0.615-0.056,0.967-0.17
		c0.352-0.11,0.756-0.284,1.213-0.525v1.763c-0.441,0.197-0.885,0.348-1.326,0.442c-0.441,0.099-0.896,0.146-1.363,0.146
		c-0.564,0-1.066-0.106-1.494-0.324c-0.434-0.218-0.771-0.525-1.027-0.929c-0.156-0.253-0.271-0.537-0.336-0.854
		c-0.068-0.32-0.1-0.795-0.1-1.428V10.976L131.912,10.976z"/>
	<path fill="#FFFFFF" d="M32.745,7.47h-1.964c-0.04-0.446-0.202-0.79-0.485-1.027c-0.287-0.233-0.683-0.352-1.197-0.352
		c-0.837,0-1.459,0.284-1.859,0.857c-0.404,0.569-0.606,1.446-0.606,2.629c0,1.296,0.194,2.272,0.582,2.929
		c0.384,0.656,0.966,0.983,1.738,0.983c0.562,0,0.999-0.149,1.31-0.446c0.312-0.296,0.489-0.743,0.538-1.336h2.038
		c-0.049,1.095-0.413,1.937-1.092,2.518c-0.679,0.581-1.625,0.874-2.841,0.874c-1.302,0-2.32-0.471-3.06-1.407
		c-0.74-0.938-1.107-2.237-1.107-3.897c0-1.728,0.384-3.039,1.156-3.933c0.768-0.89,1.896-1.336,3.379-1.336
		c1.051,0,1.88,0.257,2.482,0.771C32.361,5.81,32.688,6.534,32.745,7.47L32.745,7.47z"/>
	<path fill="#FFFFFF" d="M38.087,4.621h1.798v1.218c0.388-0.459,0.825-0.795,1.31-1.02c0.485-0.226,1.019-0.337,1.605-0.337
		c0.962,0,1.714,0.277,2.251,0.834c0.538,0.554,0.804,1.336,0.804,2.336v0.071h-1.823V7.585c0-0.471-0.114-0.839-0.344-1.1
		c-0.23-0.265-0.55-0.395-0.958-0.395c-0.861,0-1.552,0.379-2.069,1.142c-0.518,0.759-0.776,1.795-0.776,3.107v4.62h-1.798V4.621
		L38.087,4.621z"/>
	<path fill="#FFFFFF" d="M54.848,6.451H51.59V4.759h5.178V14.96h-1.92V6.451L54.848,6.451z M54.141,0h2.676V2.34h-2.676V0L54.141,0z
		"/>
	<path fill="#FFFFFF" d="M70.064,10.134c-0.141-0.016-0.328-0.027-0.557-0.035c-0.324-0.016-0.529-0.023-0.627-0.023
		c-1.342,0-2.34,0.153-2.996,0.458c-0.654,0.305-0.982,0.767-0.982,1.392c0,0.442,0.174,0.802,0.521,1.091
		c0.348,0.284,0.797,0.427,1.352,0.427c0.922,0,1.693-0.309,2.307-0.921C69.697,11.909,70.023,11.115,70.064,10.134L70.064,10.134z
		 M70.064,13.628c-0.432,0.494-0.93,0.861-1.49,1.106c-0.563,0.241-1.178,0.364-1.848,0.364c-1.129,0-2.037-0.297-2.721-0.894
		c-0.684-0.593-1.023-1.376-1.023-2.348c0-1.182,0.502-2.044,1.504-2.593c1.002-0.55,2.572-0.822,4.701-0.822
		c0.105,0,0.252,0.004,0.445,0.012s0.34,0.012,0.432,0.012V8.395c0-0.818-0.209-1.411-0.625-1.778c-0.422-0.367-1.1-0.55-2.039-0.55
		c-0.512,0-0.908,0.067-1.191,0.198c-0.279,0.13-0.469,0.336-0.563,0.612H63.67c0.094-0.802,0.465-1.411,1.107-1.822
		c0.643-0.415,1.533-0.62,2.672-0.62c1.523,0,2.633,0.324,3.328,0.968c0.693,0.645,1.041,1.672,1.041,3.087v6.471h-1.754V13.628
		L70.064,13.628z"/>
	<path fill="#FFFFFF" d="M77.141,4.621h1.799v1.218c0.389-0.459,0.824-0.795,1.311-1.02c0.484-0.226,1.018-0.337,1.604-0.337
		c0.963,0,1.715,0.277,2.252,0.834c0.537,0.554,0.805,1.336,0.805,2.336v0.071h-1.822V7.585c0-0.471-0.115-0.839-0.344-1.1
		c-0.23-0.265-0.551-0.395-0.959-0.395c-0.861,0-1.551,0.379-2.068,1.142c-0.518,0.759-0.777,1.795-0.777,3.107v4.62h-1.799V4.621
		L77.141,4.621z"/>
	<path fill="#FFFFFF" d="M96.424,8.514c-0.084-0.791-0.355-1.399-0.805-1.826c-0.451-0.431-1.047-0.645-1.789-0.645
		c-0.721,0-1.322,0.218-1.809,0.648c-0.484,0.435-0.807,1.039-0.965,1.822H96.424L96.424,8.514z M95.713,12.704h2.166
		c-0.125,0.755-0.525,1.348-1.195,1.774c-0.672,0.431-1.537,0.645-2.596,0.645c-1.576,0-2.813-0.471-3.707-1.411
		c-0.893-0.944-1.338-2.261-1.338-3.948c0-1.645,0.441-2.941,1.326-3.886s2.086-1.419,3.602-1.419c1.414,0,2.502,0.482,3.27,1.446
		c0.764,0.969,1.148,2.349,1.148,4.146v0.071h-7.332v0.114c0,1.013,0.266,1.803,0.805,2.372c0.537,0.573,1.273,0.857,2.207,0.857
		c0.447,0,0.813-0.063,1.086-0.189C95.434,13.15,95.619,12.957,95.713,12.704L95.713,12.704z"/>
	<path fill-rule="evenodd" clip-rule="evenodd" fill="#FFFFFF" d="M1.013,1.178h8.626c2.964,2.124,6.418,4.261,10.207,6.261
		c0.148,0.078,0.296,0.157,0.444,0.233v5.884c-2.028-0.805-4.153-1.783-6.305-2.919C8.286,7.627,3.641,4.157,1.013,1.178
		L1.013,1.178z M12.508,1.178h7.782v4.323c-0.898-0.424-1.806-0.876-2.719-1.358C15.768,3.191,14.069,2.193,12.508,1.178
		L12.508,1.178z M20.29,15.945v1.36h-9.085c-0.234-0.119-0.467-0.24-0.702-0.364C6.3,14.722,2.67,12.25,0,9.91V2.718
		c3.749,3.603,9.466,7.629,16.259,11.215C17.615,14.649,18.961,15.32,20.29,15.945L20.29,15.945z M7.617,17.305H0v-5.265
		C2.199,13.784,4.767,15.567,7.617,17.305L7.617,17.305z"/>
</g>
</svg>
